<svg width="30" height="30" viewBox="0 0 30 30" fill="none" xmlns="http://www.w3.org/2000/svg">
<path fill-rule="evenodd" clip-rule="evenodd" d="M15.0325 0C11.2683 0 7.83917 1.24333 5.81 2.25917C5.62667 2.35083 5.45584 2.44083 5.29667 2.5275C4.98167 2.69917 4.71334 2.85917 4.5 3L6.80834 6.39833L7.895 6.83083C12.1417 8.97333 17.8367 8.97333 22.0842 6.83083L23.3175 6.19083L25.5 3C25.0479 2.70505 24.5779 2.43869 24.0925 2.2025C22.0733 1.1975 18.7258 0 15.0333 0H15.0325ZM9.66417 3.84667C8.84677 3.69372 8.03944 3.49112 7.24667 3.24C9.1475 2.39583 11.98 1.5 15.0325 1.5C17.1467 1.5 19.1458 1.93 20.7992 2.475C18.8617 2.7475 16.7942 3.21 14.8242 3.77917C13.2742 4.2275 11.4625 4.17917 9.66417 3.84667ZM22.9642 8.06667L22.7592 8.17C18.0875 10.5267 11.8908 10.5267 7.21917 8.17L7.025 8.07167C0.00667089 15.7725 -5.35166 29.9975 15.0325 29.9975C35.4167 29.9975 29.9275 15.5067 22.9642 8.06667ZM14.1667 15C13.7246 15 13.3007 15.1756 12.9882 15.4882C12.6756 15.8007 12.5 16.2246 12.5 16.6667C12.5 17.1087 12.6756 17.5326 12.9882 17.8452C13.3007 18.1577 13.7246 18.3333 14.1667 18.3333V15ZM15.8333 13.3333V12.5H14.1667V13.3333C13.2826 13.3333 12.4348 13.6845 11.8096 14.3096C11.1845 14.9348 10.8333 15.7826 10.8333 16.6667C10.8333 17.5507 11.1845 18.3986 11.8096 19.0237C12.4348 19.6488 13.2826 20 14.1667 20V23.3333C13.4417 23.3333 12.8242 22.8708 12.5942 22.2225C12.56 22.1164 12.505 22.0183 12.4323 21.9339C12.3596 21.8494 12.2706 21.7804 12.1708 21.731C12.071 21.6815 11.9622 21.6526 11.851 21.6459C11.7398 21.6392 11.6283 21.6549 11.5233 21.692C11.4182 21.7291 11.3217 21.7869 11.2393 21.862C11.157 21.9371 11.0906 22.0279 11.044 22.1291C10.9973 22.2303 10.9715 22.3399 10.968 22.4512C10.9644 22.5626 10.9833 22.6735 11.0233 22.7775C11.2532 23.4275 11.6789 23.9902 12.2418 24.3882C12.8048 24.7863 13.4772 25 14.1667 25V25.8333H15.8333V25C16.7174 25 17.5652 24.6488 18.1904 24.0237C18.8155 23.3986 19.1667 22.5507 19.1667 21.6667C19.1667 20.7826 18.8155 19.9348 18.1904 19.3096C17.5652 18.6845 16.7174 18.3333 15.8333 18.3333V15C16.5583 15 17.1758 15.4625 17.4058 16.1108C17.44 16.2169 17.495 16.3151 17.5677 16.3995C17.6404 16.4839 17.7294 16.5529 17.8292 16.6024C17.929 16.6518 18.0378 16.6807 18.149 16.6875C18.2602 16.6941 18.3717 16.6785 18.4767 16.6414C18.5818 16.6042 18.6784 16.5464 18.7607 16.4713C18.843 16.3963 18.9094 16.3054 18.956 16.2042C19.0027 16.103 19.0285 15.9935 19.032 15.8821C19.0356 15.7707 19.0168 15.6598 18.9767 15.5558C18.7468 14.9059 18.3211 14.3431 17.7582 13.9451C17.1952 13.5471 16.5228 13.3333 15.8333 13.3333ZM15.8333 20V23.3333C16.2754 23.3333 16.6993 23.1577 17.0118 22.8452C17.3244 22.5326 17.5 22.1087 17.5 21.6667C17.5 21.2246 17.3244 20.8007 17.0118 20.4882C16.6993 20.1756 16.2754 20 15.8333 20Z" fill="black"/>
</svg>
