<svg width="27" height="27" viewBox="0 0 27 27" fill="none" xmlns="http://www.w3.org/2000/svg">
<path d="M19.2967 16.9811H18.0772L17.6449 16.5643C19.2101 14.7489 20.0703 12.4313 20.0686 10.0343C20.0686 8.04971 19.4801 6.10968 18.3775 4.45955C17.2749 2.80942 15.7078 1.52329 13.8743 0.76382C12.0407 0.00434771 10.0232 -0.194365 8.07671 0.192811C6.13025 0.579987 4.34231 1.53566 2.93898 2.93898C1.53566 4.34231 0.579987 6.13025 0.192811 8.07671C-0.194365 10.0232 0.00434771 12.0407 0.76382 13.8743C1.52329 15.7078 2.80942 17.2749 4.45955 18.3775C6.10968 19.4801 8.04971 20.0686 10.0343 20.0686C12.5197 20.0686 14.8045 19.1578 16.5643 17.6449L16.9811 18.0772V19.2967L24.6998 27L27 24.6998L19.2967 16.9811ZM10.0343 16.9811C6.1904 16.9811 3.08748 13.8782 3.08748 10.0343C3.08748 6.1904 6.1904 3.08748 10.0343 3.08748C13.8782 3.08748 16.9811 6.1904 16.9811 10.0343C16.9811 13.8782 13.8782 16.9811 10.0343 16.9811Z" fill="black"/>
</svg>
